<svg xmlns="http://www.w3.org/2000/svg" xmlns:xlink="http://www.w3.org/1999/xlink" width="1000" height="150" viewBox="0 0 1000 90">
  <defs>
    <filter id="Trazado_101" x="304.545" y="29.546" width="180.909" height="120.454" filterUnits="userSpaceOnUse">
      <feOffset input="SourceAlpha"/>
      <feGaussianBlur stdDeviation="10" result="blur"/>
      <feFlood flood-opacity="0.302"/>
      <feComposite operator="in" in2="blur"/>
      <feComposite in="SourceGraphic"/>
    </filter>
  </defs>
  <g id="Grupo_119" data-name="Grupo 119" transform="translate(305 -724)">
    <rect id="Rect치ngulo_57" data-name="Rect치ngulo 57" width="660" height="120" transform="translate(-135 724)" fill="none"/>
    <rect id="Rect치ngulo_56" data-name="Rect치ngulo 56" width="1000" height="100" transform="translate(-305 744)" fill="red"/>
    <g transform="matrix(1, 0, 0, 1, -305, 724)" filter="url(#Trazado_101)">
      <path id="Trazado_101-2" data-name="Trazado 101" d="M139.841,82.521a60.454,60.454,0,0,0-120.909,0Z" transform="translate(315.61 37.48)" fill="red"/>
    </g>
    <g id="Grupo_107" data-name="Grupo 107" transform="translate(0 4.617)">
      <path id="Trazado_102" data-name="Trazado 102" d="M164.926,45.484V33.7h1.21l4.061,9.539h.052l4.043-9.539h1.217V45.484h-1.148V36.472h-.08l-3.5,8.1h-1.134l-3.515-8.1h-.062v9.012Z" transform="translate(43.536 738.458)" fill="#fff"/>
      <path id="Trazado_103" data-name="Trazado 103" d="M175.071,45.484,179.3,33.7h1.245l4.223,11.785h-1.33L182.19,41.8h-4.536L176.4,45.484Zm4.821-10.222-1.883,5.5h3.818l-1.893-5.5Z" transform="translate(46.214 738.458)" fill="#fff"/>
      <path id="Trazado_104" data-name="Trazado 104" d="M184.477,46.063V34.278h1.269l6.152,9.609h.062V34.278h1.269V46.063H191.96L185.8,36.456h-.059v9.607Zm4.7-12.831a2.385,2.385,0,0,1-.5-.38,5.61,5.61,0,0,0-.425-.383.706.706,0,0,0-.458-.169.5.5,0,0,0-.5.336,1.8,1.8,0,0,0-.148.631h-.854a2.277,2.277,0,0,1,.163-.867,1.523,1.523,0,0,1,.493-.65,1.318,1.318,0,0,1,.813-.245,1.422,1.422,0,0,1,.694.159,2.424,2.424,0,0,1,.518.377c.153.144.3.27.441.379a.74.74,0,0,0,.463.164.558.558,0,0,0,.518-.306,1.35,1.35,0,0,0,.182-.636h.854a2.026,2.026,0,0,1-.173.817,1.655,1.655,0,0,1-.513.67,1.339,1.339,0,0,1-.858.268,1.392,1.392,0,0,1-.709-.164" transform="translate(48.697 737.878)" fill="#fff"/>
      <path id="Trazado_105" data-name="Trazado 105" d="M193.136,45.484,197.369,33.7h1.245l4.225,11.785h-1.33L200.255,41.8H195.72l-1.254,3.681Zm4.821-10.222-1.883,5.5h3.818L198,35.263Z" transform="translate(50.982 738.458)" fill="#fff"/>
      <path id="Trazado_106" data-name="Trazado 106" d="M202.541,45.484V33.7h1.272l6.152,9.607h.059V33.7H211.3V45.484h-1.272l-6.159-9.609H203.8v9.609Z" transform="translate(53.466 738.458)" fill="#fff"/>
      <path id="Trazado_107" data-name="Trazado 107" d="M211.2,45.484,215.433,33.7h1.245L220.9,45.484h-1.33L218.319,41.8h-4.535l-1.254,3.681Zm4.821-10.222-1.883,5.5h3.818l-1.891-5.5Z" transform="translate(55.751 738.458)" fill="#fff"/>
      <path id="Trazado_108" data-name="Trazado 108" d="M126.31,55.429a1.577,1.577,0,0,1-1.13.415,1.628,1.628,0,0,1-1.157-.415,1.383,1.383,0,0,1-.444-1.057,1.328,1.328,0,0,1,.444-1.026,1.651,1.651,0,0,1,1.157-.406,1.6,1.6,0,0,1,1.125.406,1.325,1.325,0,0,1,.445,1.026,1.389,1.389,0,0,1-.44,1.057M123.945,66.6l.267-8.778h1.916l.257,8.778Z" transform="translate(32.622 743.537)" fill="#fff"/>
      <path id="Trazado_109" data-name="Trazado 109" d="M127.71,64.4V50.917h1.974l6.291,9.677h.1V50.917h2.153V64.4h-1.964l-6.311-9.707h-.089V64.4Z" transform="translate(33.712 743.003)" fill="#fff"/>
      <path id="Trazado_110" data-name="Trazado 110" d="M146.746,63.761h-2.153V62.023h-.119a2.528,2.528,0,0,1-.518.859,3.088,3.088,0,0,1-1.012.736,3.581,3.581,0,0,1-1.55.3,4.546,4.546,0,0,1-1.842-.35,2.683,2.683,0,0,1-1.245-1.106,3.846,3.846,0,0,1-.449-1.981V53.323h2.192V59.91a2.447,2.447,0,0,0,.292,1.3,1.6,1.6,0,0,0,.76.662,2.678,2.678,0,0,0,1.023.192,2.5,2.5,0,0,0,1.239-.306,2.333,2.333,0,0,0,.87-.829,2.209,2.209,0,0,0,.321-1.175V53.323h2.192Z" transform="translate(36.391 743.638)" fill="#fff"/>
      <path id="Trazado_111" data-name="Trazado 111" d="M148.48,63.418a3.837,3.837,0,0,1-1.6-1.61,5.271,5.271,0,0,1-.564-2.523V57.873a5.05,5.05,0,0,1,.593-2.528,4.07,4.07,0,0,1,1.6-1.6,4.665,4.665,0,0,1,2.287-.559,4.55,4.55,0,0,1,2.316.578,4.126,4.126,0,0,1,1.575,1.624,5.11,5.11,0,0,1,.573,2.489V59.1H148.49v.513a2.767,2.767,0,0,0,.637,1.862,2.229,2.229,0,0,0,1.792.746,2.948,2.948,0,0,0,1.018-.163,1.954,1.954,0,0,0,.715-.435,1.272,1.272,0,0,0,.35-.6h2.144a2.748,2.748,0,0,1-.321.968,3.481,3.481,0,0,1-.781.963,4.032,4.032,0,0,1-1.283.736,5.288,5.288,0,0,1-1.831.286,5.1,5.1,0,0,1-2.45-.557m4.641-5.752v-.138a3.09,3.09,0,0,0-.287-1.378,2.18,2.18,0,0,0-.8-.914,2.244,2.244,0,0,0-1.22-.326,2.268,2.268,0,0,0-1.225.326,2.177,2.177,0,0,0-.81.914,3.108,3.108,0,0,0-.286,1.378v.138Z" transform="translate(38.624 743.601)" fill="#fff"/>
      <path id="Trazado_112" data-name="Trazado 112" d="M153.62,53.323h2.4l2.321,8.314h.09l2.528-8.314h2.311l-3.714,10.438h-2.37Z" transform="translate(40.552 743.638)" fill="#fff"/>
      <path id="Trazado_113" data-name="Trazado 113" d="M162.345,63.087a2.983,2.983,0,0,1-.953-2.326,2.875,2.875,0,0,1,.943-2.236,3.97,3.97,0,0,1,2.75-.854h2.637v-.977a1.6,1.6,0,0,0-.533-1.328,2.213,2.213,0,0,0-1.432-.43,2.663,2.663,0,0,0-.977.153,1.477,1.477,0,0,0-.6.415,1.547,1.547,0,0,0-.306.617h-2.083a3.125,3.125,0,0,1,.321-1.189,2.729,2.729,0,0,1,.77-.928,3.527,3.527,0,0,1,1.235-.6,6.349,6.349,0,0,1,1.713-.207,5.877,5.877,0,0,1,2.044.341,3.085,3.085,0,0,1,1.481,1.11,3.49,3.49,0,0,1,.554,2.074v7.071h-2.084V62.44h-.1a3.037,3.037,0,0,1-.612.741,2.952,2.952,0,0,1-.953.559,3.858,3.858,0,0,1-1.349.212,3.525,3.525,0,0,1-2.463-.865m4.271-1.1a2.142,2.142,0,0,0,.805-.707,1.768,1.768,0,0,0,.3-1.016V59.142h-2.29a1.956,1.956,0,0,0-1.4.425,1.45,1.45,0,0,0-.44,1.086,1.359,1.359,0,0,0,.578,1.21,2.285,2.285,0,0,0,1.309.391,2.427,2.427,0,0,0,1.135-.262" transform="translate(42.604 743.605)" fill="#fff"/>
      <path id="Trazado_114" data-name="Trazado 114" d="M170.116,54.55a3.286,3.286,0,0,1,1.491-1.036,5.8,5.8,0,0,1,1.979-.331,5.177,5.177,0,0,1,2.02.365,3.15,3.15,0,0,1,1.352,1.031,2.625,2.625,0,0,1,.489,1.6h-1.976a1.333,1.333,0,0,0-.252-.661,1.658,1.658,0,0,0-.637-.523,2.348,2.348,0,0,0-1.057-.207,2.262,2.262,0,0,0-1.358.374,1.222,1.222,0,0,0-.518,1.048.989.989,0,0,0,.246.7,1.637,1.637,0,0,0,.637.415,5.03,5.03,0,0,0,.854.238c.31.059.608.112.9.158a9.046,9.046,0,0,1,1.757.474,2.819,2.819,0,0,1,1.235.889,2.5,2.5,0,0,1,.454,1.57,3.049,3.049,0,0,1-.523,1.8,3.243,3.243,0,0,1-1.5,1.135,6.143,6.143,0,0,1-2.3.391,5.88,5.88,0,0,1-2.153-.36,3.162,3.162,0,0,1-1.417-1.028,2.584,2.584,0,0,1-.5-1.594h2.132a1.61,1.61,0,0,0,.287.731,1.418,1.418,0,0,0,.661.484,3.1,3.1,0,0,0,1.1.167,3.028,3.028,0,0,0,1.191-.2,1.432,1.432,0,0,0,.671-.533,1.353,1.353,0,0,0,.212-.741.989.989,0,0,0-.355-.824,2.5,2.5,0,0,0-.948-.43Q173.7,59.5,173,59.373a11.387,11.387,0,0,1-1.738-.5A2.891,2.891,0,0,1,170.012,58a2.481,2.481,0,0,1-.464-1.6,2.858,2.858,0,0,1,.568-1.852" transform="translate(44.704 743.601)" fill="#fff"/>
      <path id="Trazado_115" data-name="Trazado 115" d="M181.9,63.418a3.837,3.837,0,0,1-1.6-1.61,5.271,5.271,0,0,1-.564-2.523V57.873a5.05,5.05,0,0,1,.593-2.528,4.07,4.07,0,0,1,1.6-1.6,4.665,4.665,0,0,1,2.287-.559,4.55,4.55,0,0,1,2.316.578,4.126,4.126,0,0,1,1.575,1.624,5.11,5.11,0,0,1,.573,2.489V59.1h-6.774v.513a2.767,2.767,0,0,0,.637,1.862,2.229,2.229,0,0,0,1.792.746,2.948,2.948,0,0,0,1.018-.163,1.954,1.954,0,0,0,.715-.435,1.272,1.272,0,0,0,.35-.6h2.144a2.748,2.748,0,0,1-.321.968,3.481,3.481,0,0,1-.781.963,4.033,4.033,0,0,1-1.283.736,5.288,5.288,0,0,1-1.831.286,5.1,5.1,0,0,1-2.45-.557m4.641-5.752v-.138a3.09,3.09,0,0,0-.287-1.378,2.18,2.18,0,0,0-.8-.914,2.244,2.244,0,0,0-1.22-.326,2.268,2.268,0,0,0-1.225.326,2.177,2.177,0,0,0-.81.914,3.108,3.108,0,0,0-.286,1.378v.138Z" transform="translate(47.445 743.601)" fill="#fff"/>
      <path id="Trazado_116" data-name="Trazado 116" d="M189.3,55.927h-1.728V54.209H189.3V53.172a2.847,2.847,0,0,1,.8-2.236,3.936,3.936,0,0,1,2.632-.707q.375,0,.756.025c.253.015.442.034.568.054v1.639a3.8,3.8,0,0,0-.43-.03c-.2-.006-.374-.01-.518-.01a2.056,2.056,0,0,0-1.259.306,1.377,1.377,0,0,0-.391,1.136v.859h2.38v1.718h-2.35v8.651H189.3Z" transform="translate(49.516 742.821)" fill="#fff"/>
      <path id="Trazado_117" data-name="Trazado 117" d="M195.574,63.418a3.837,3.837,0,0,1-1.6-1.61,5.271,5.271,0,0,1-.564-2.523V57.873A5.05,5.05,0,0,1,194,55.345a4.07,4.07,0,0,1,1.6-1.6,4.665,4.665,0,0,1,2.286-.559,4.55,4.55,0,0,1,2.316.578,4.127,4.127,0,0,1,1.575,1.624,5.11,5.11,0,0,1,.573,2.489V59.1h-6.774v.513a2.767,2.767,0,0,0,.637,1.862,2.229,2.229,0,0,0,1.792.746,2.948,2.948,0,0,0,1.017-.163,1.954,1.954,0,0,0,.715-.435,1.272,1.272,0,0,0,.35-.6h2.144a2.748,2.748,0,0,1-.321.968,3.481,3.481,0,0,1-.781.963,4.033,4.033,0,0,1-1.283.736,5.288,5.288,0,0,1-1.832.286,5.1,5.1,0,0,1-2.45-.557m4.641-5.752v-.138a3.091,3.091,0,0,0-.287-1.378,2.18,2.18,0,0,0-.8-.914,2.244,2.244,0,0,0-1.22-.326,2.268,2.268,0,0,0-1.225.326,2.177,2.177,0,0,0-.81.914,3.108,3.108,0,0,0-.286,1.378v.138Z" transform="translate(51.056 743.601)" fill="#fff"/>
      <path id="Trazado_118" data-name="Trazado 118" d="M201.888,53.356h2.153v1.7h.109a3.193,3.193,0,0,1,.43-.815,2.448,2.448,0,0,1,.878-.736,3.3,3.3,0,0,1,1.536-.306,3.405,3.405,0,0,1,1.378.257,2.619,2.619,0,0,1,.963.7,2.781,2.781,0,0,1,.542,1h.09a3.144,3.144,0,0,1,.6-.943,3,3,0,0,1,1.042-.731,3.749,3.749,0,0,1,1.526-.282,3.447,3.447,0,0,1,2.5.868,3.2,3.2,0,0,1,.9,2.41v7.317H214.35V57.128a2.483,2.483,0,0,0-.236-1.13,1.664,1.664,0,0,0-.676-.717,2.178,2.178,0,0,0-1.072-.246,2,2,0,0,0-1.807,1.077,2.515,2.515,0,0,0-.276,1.2v6.478h-2.134V57.187a2.421,2.421,0,0,0-.257-1.16,1.811,1.811,0,0,0-.707-.736,2.088,2.088,0,0,0-1.052-.257,2.028,2.028,0,0,0-1.057.277,1.936,1.936,0,0,0-.731.78,2.552,2.552,0,0,0-.267,1.2v6.5h-2.192Z" transform="translate(53.293 743.605)" fill="#fff"/>
      <path id="Trazado_119" data-name="Trazado 119" d="M217,64.461a3.844,3.844,0,0,1-1.6-1.61,5.271,5.271,0,0,1-.564-2.523V58.916a5.063,5.063,0,0,1,.593-2.528,4.081,4.081,0,0,1,1.605-1.6,4.657,4.657,0,0,1,2.285-.559,4.547,4.547,0,0,1,2.316.578,4.109,4.109,0,0,1,1.575,1.624,5.11,5.11,0,0,1,.574,2.489v1.225h-6.775v.513a2.767,2.767,0,0,0,.637,1.862,2.231,2.231,0,0,0,1.792.746,2.948,2.948,0,0,0,1.017-.163,1.943,1.943,0,0,0,.715-.435,1.252,1.252,0,0,0,.35-.6h2.144a2.748,2.748,0,0,1-.321.968,3.5,3.5,0,0,1-.78.963,4.053,4.053,0,0,1-1.284.736,5.288,5.288,0,0,1-1.832.286,5.1,5.1,0,0,1-2.45-.557m4.641-5.752v-.138a3.108,3.108,0,0,0-.286-1.378,2.192,2.192,0,0,0-.805-.914,2.241,2.241,0,0,0-1.22-.326,2.271,2.271,0,0,0-1.225.326,2.166,2.166,0,0,0-.809.914,3.091,3.091,0,0,0-.287,1.378v.138Zm-.987-9.48h2.034l-2.754,3.5h-1.629Z" transform="translate(56.712 742.557)" fill="#fff"/>
      <path id="Trazado_120" data-name="Trazado 120" d="M223.424,53.354h2.183v1.629h.118a2.73,2.73,0,0,1,.43-.765,2.639,2.639,0,0,1,.875-.712,3.01,3.01,0,0,1,1.431-.3c.145,0,.278.005.4.015a2.924,2.924,0,0,1,.34.044V55.2a2.369,2.369,0,0,0-.4-.059c-.172-.014-.349-.02-.533-.02a3,3,0,0,0-1.461.321,2.076,2.076,0,0,0-.87.88,2.715,2.715,0,0,0-.286,1.259v6.211h-2.222Z" transform="translate(58.978 743.607)" fill="#fff"/>
      <path id="Trazado_121" data-name="Trazado 121" d="M229.169,50.151a1.449,1.449,0,0,1,1.028-.375,1.5,1.5,0,0,1,1.062.375,1.252,1.252,0,0,1,.41.967,1.225,1.225,0,0,1-.41.953,1.524,1.524,0,0,1-1.062.37,1.468,1.468,0,0,1-1.028-.37,1.229,1.229,0,0,1-.4-.953,1.257,1.257,0,0,1,.4-.967m-.049,4.108H231.3V64.7H229.12Z" transform="translate(60.388 742.702)" fill="#fff"/>
      <path id="Trazado_122" data-name="Trazado 122" d="M237.662,54.171a2.908,2.908,0,0,1,1.033.588,2.3,2.3,0,0,1,.627.918h.109V50.354h2.192V64.545h-2.132V62.876h-.109a1.857,1.857,0,0,1-.4.736,2.673,2.673,0,0,1-.7.568,3.78,3.78,0,0,1-.918.37,4.218,4.218,0,0,1-1.077.133,3.962,3.962,0,0,1-2.093-.537,3.6,3.6,0,0,1-1.378-1.546,5.394,5.394,0,0,1-.489-2.38V58.432a5.273,5.273,0,0,1,.5-2.38,3.682,3.682,0,0,1,1.4-1.541,3.977,3.977,0,0,1,2.094-.542,4.186,4.186,0,0,1,1.342.2m-1.99,1.945a2.271,2.271,0,0,0-.819,1.017,4.009,4.009,0,0,0-.292,1.614v1.145a4.058,4.058,0,0,0,.292,1.62,2.226,2.226,0,0,0,.834,1.021,2.331,2.331,0,0,0,1.293.35,2.358,2.358,0,0,0,1.289-.345,2.311,2.311,0,0,0,.853-.982,3.487,3.487,0,0,0,.307-1.526v-1.58a2.927,2.927,0,0,0-.326-1.413,2.413,2.413,0,0,0-.884-.938,2.462,2.462,0,0,0-1.289-.335,2.219,2.219,0,0,0-1.259.35" transform="translate(61.329 742.854)" fill="#fff"/>
      <path id="Trazado_123" data-name="Trazado 123" d="M243.283,63.418a3.837,3.837,0,0,1-1.6-1.61,5.271,5.271,0,0,1-.564-2.523V57.873a5.05,5.05,0,0,1,.593-2.528,4.07,4.07,0,0,1,1.6-1.6,4.665,4.665,0,0,1,2.287-.559,4.55,4.55,0,0,1,2.316.578,4.126,4.126,0,0,1,1.575,1.624,5.109,5.109,0,0,1,.573,2.489V59.1h-6.774v.513a2.767,2.767,0,0,0,.637,1.862,2.229,2.229,0,0,0,1.792.746,2.948,2.948,0,0,0,1.017-.163,1.954,1.954,0,0,0,.715-.435,1.272,1.272,0,0,0,.35-.6h2.144a2.748,2.748,0,0,1-.321.968,3.481,3.481,0,0,1-.781.963,4.033,4.033,0,0,1-1.283.736,5.288,5.288,0,0,1-1.831.286,5.1,5.1,0,0,1-2.45-.557m4.641-5.752v-.138a3.091,3.091,0,0,0-.287-1.378,2.181,2.181,0,0,0-.8-.914,2.244,2.244,0,0,0-1.22-.326,2.268,2.268,0,0,0-1.225.326,2.177,2.177,0,0,0-.81.914,3.108,3.108,0,0,0-.286,1.378v.138Z" transform="translate(63.649 743.601)" fill="#fff"/>
      <path id="Trazado_124" data-name="Trazado 124" d="M249.832,54.55a3.286,3.286,0,0,1,1.491-1.036,5.8,5.8,0,0,1,1.979-.331,5.177,5.177,0,0,1,2.02.365,3.15,3.15,0,0,1,1.352,1.031,2.625,2.625,0,0,1,.489,1.6h-1.976a1.333,1.333,0,0,0-.252-.661,1.658,1.658,0,0,0-.637-.523,2.348,2.348,0,0,0-1.057-.207,2.262,2.262,0,0,0-1.358.374,1.222,1.222,0,0,0-.518,1.048.989.989,0,0,0,.246.7,1.637,1.637,0,0,0,.637.415,5.031,5.031,0,0,0,.854.238c.31.059.608.112.9.158a9.045,9.045,0,0,1,1.757.474,2.819,2.819,0,0,1,1.235.889,2.5,2.5,0,0,1,.454,1.57,3.049,3.049,0,0,1-.523,1.8,3.243,3.243,0,0,1-1.5,1.135,6.143,6.143,0,0,1-2.3.391,5.88,5.88,0,0,1-2.153-.36,3.162,3.162,0,0,1-1.417-1.028,2.584,2.584,0,0,1-.5-1.594H251.2a1.61,1.61,0,0,0,.287.731,1.417,1.417,0,0,0,.661.484,3.094,3.094,0,0,0,1.1.167,3.028,3.028,0,0,0,1.191-.2,1.432,1.432,0,0,0,.671-.533,1.353,1.353,0,0,0,.212-.741.989.989,0,0,0-.355-.824,2.5,2.5,0,0,0-.948-.43q-.593-.148-1.294-.277a11.386,11.386,0,0,1-1.738-.5A2.891,2.891,0,0,1,249.728,58a2.481,2.481,0,0,1-.464-1.6,2.858,2.858,0,0,1,.568-1.852" transform="translate(65.747 743.601)" fill="#fff"/>
      <path id="Trazado_125" data-name="Trazado 125" d="M257.156,62.091a1.577,1.577,0,0,1,1.121-.41,1.639,1.639,0,0,1,1.155.41,1.366,1.366,0,0,1,.444,1.052,1.352,1.352,0,0,1-.439,1.031,1.635,1.635,0,0,1-1.16.411,1.578,1.578,0,0,1-1.121-.411,1.349,1.349,0,0,1-.44-1.031,1.372,1.372,0,0,1,.44-1.052m2.365-11.174-.267,8.788h-1.916l-.257-8.788Z" transform="translate(67.767 743.003)" fill="#fff"/>
    </g>
    <g id="Grupo_108" data-name="Grupo 108" transform="translate(61.653 757.534)">
      <path id="Trazado_126" data-name="Trazado 126" d="M95.081,40.277c-1.061-1-1.627-1.569-2.765-.6-.949.811-1.405,2.449-2.152,3.452a6.868,6.868,0,0,1-2.716,2.283c-1.687.735-3.4.167-5.108.576-3.734.9-3.436,6.212-7.295,6.634-1.427.155-2.124.231-2.752,1.572-.471,1.007-.656,2.009-1.843,2.342-.716.2-1.513.009-2.252.165a9.448,9.448,0,0,0-2.193.849,27.463,27.463,0,0,0-5.552,3.81l1.217-28.929a27.5,27.5,0,0,1,4.841-3.669,8.918,8.918,0,0,1,2.448-.984c.881-.181,1.859.074,2.7-.174,1.185-.346,1.377-1.374,1.857-2.383.667-1.4,1.51-1.428,2.98-1.582,3.847-.406,3.505-5.651,7.145-6.574,1.483-.377,2.975.1,4.445-.507a7.241,7.241,0,0,0,2.48-1.861c.714-.771,1.421-2.149,2.417-2.6,1.39-.622,2.213.313,3.224,1.293L95.081,40.277" transform="translate(-58.054 -11.903)" fill="#e4e4e4"/>
      <path id="Trazado_127" data-name="Trazado 127" d="M93.267,39.074c-.758-.728-1.508-.027-2.078.4.113.441.166.664.269,1.123a11.062,11.062,0,0,1-2.143,1.5c-.183-.471-.28-.709-.483-1.2a7.126,7.126,0,0,1-3.717-.089c.275.632.409.94.665,1.547-1.287-.321-2.528-.949-3.835-1.151-.159-.582-.235-.866-.377-1.427a2.644,2.644,0,0,0-1.8.47c.067.5.1.747.176,1.249a11.621,11.621,0,0,0-1.4.947c-.058-.5-.087-.75-.146-1.257-.967.56-1.858.045-2.771-.438a5.308,5.308,0,0,0-2.665,3.267c-.084.744-.123,1.118-.2,1.867-.255,1.007-.434,2.035-.68,3.046.071-.74.106-1.112.17-1.855a8.82,8.82,0,0,1-.917,2.579c-.121.72-.185,1.076-.321,1.784-.631.653-1.365,1.014-2.007,1.641.118-.647.177-.968.3-1.607-.622.55-1.191,1.151-1.762,1.753-.159.708-.239,1.064-.4,1.779-.818.9-1.6,1.831-2.367,2.774l.446-1.881Q63.62,57.9,62.119,59.991c-.7.527-1.038.8-1.665,1.355q.076-1.816.154-3.633c.752-1.193,1.538-2.358,2.354-3.505-.533.216-.795.332-1.293.564q1.056-1.59,2.194-3.12a14.16,14.16,0,0,1,1.445-.523c.677-.83,1.363-1.652,2.089-2.442a7.569,7.569,0,0,0-1.387.249c.7-.824,1.4-1.637,2.154-2.407a3.646,3.646,0,0,1,1.2.221,9.73,9.73,0,0,0,1.979-1.624,3.242,3.242,0,0,1-1.284-.2,4.144,4.144,0,0,0,1.85-2.091.915.915,0,0,0,.493-.327c.232-1,.415-2.014.682-3.005a2.256,2.256,0,0,0-.441-.019,7.028,7.028,0,0,1-.459,1.318,6.349,6.349,0,0,1-1.437-.752,2.148,2.148,0,0,0,1.119-.794,6.571,6.571,0,0,1-1.8-1.07,5.352,5.352,0,0,0-1.3.531A7.042,7.042,0,0,0,66.631,38a12.481,12.481,0,0,1,1.426-1,7.076,7.076,0,0,0-2.065-.459c-.577.49-.864.758-1.421,1.3-.84-.007-1.249.025-1.976.043.463-.559.707-.843,1.21-1.4a15.966,15.966,0,0,1-2.3-.161l.165-3.912c.324-.286.5-.443.874-.765,1.2-.009,2.37-.043,3.568.025-.151-.562-.226-.841-.375-1.4A8.7,8.7,0,0,1,68.1,30.7c.144.6.217.908.357,1.522a7.259,7.259,0,0,1,2,1.2c-.128-.65-.168-.976-.264-1.621a9.72,9.72,0,0,0,1.9,1.152c.064.6.09.894.139,1.481a1.307,1.307,0,0,0,.676.161c-.011-.555-.014-.832-.026-1.389a2.057,2.057,0,0,1,.6.043c.029.567.044.853.081,1.428a13.119,13.119,0,0,1,2.327,1.2,6.945,6.945,0,0,0,2.7-3.325c.131-.791.2-1.189.323-1.988.51-1.327.979-2.671,1.492-4-.129.8-.192,1.205-.316,2.011a16.64,16.64,0,0,1,1.718-3.488c.181-.779.275-1.163.47-1.925a6.2,6.2,0,0,1,3.257-2.018c-.291.631-.466.928-.709,1.554a8.442,8.442,0,0,0,3.742-2.056c.233-.78.343-1.175.555-1.975a24.57,24.57,0,0,0,2.426-4.068c-.147.827-.221,1.241-.373,2.073.695-1.41,1.643-4.355,3.54-4.6a4.809,4.809,0,0,1,1.5,1.3q-.081,1.907-.161,3.811c-1.329-.617-2.218-.532-3.071.715a1.306,1.306,0,0,1,1.182.288,4.158,4.158,0,0,0-1.892,2.153,10.444,10.444,0,0,0-1.135,1.065A21.218,21.218,0,0,1,88.88,25.07a5.4,5.4,0,0,0,1.62-1.114,11.01,11.01,0,0,1-2.819,3.615,7.616,7.616,0,0,1-2.718-.069A6.24,6.24,0,0,0,81.9,29.537a3.311,3.311,0,0,1,1.8-.2A7.3,7.3,0,0,0,81,32.156a4.137,4.137,0,0,0-1.016.921c-.4,1.051-.783,2.111-1.175,3.167.518-.319.73-.583,1.344-.917a7.743,7.743,0,0,1,1.17-1.752,6.13,6.13,0,0,1,2.877.612,4.564,4.564,0,0,0-2.073.783,21,21,0,0,1,3.494,1.1,6.351,6.351,0,0,0,2.587-1.179,5.378,5.378,0,0,0,2.541-1.057A18.086,18.086,0,0,1,89.255,36a8.674,8.674,0,0,0,2.019-1.25c.324-.659.653-1.329,1.038-1.954.607-.183.881-.15,1.741.855a1.085,1.085,0,0,0-1.174.44c1.107.4,1.759,1.716,2.351,2.623q-.074,1.773-.148,3.545c-.564-.556-1.009-1.108-1.814-1.185" transform="translate(-58.054 -11.886)" fill="red"/>
      <path id="Trazado_128" data-name="Trazado 128" d="M63.8,26.567a1.992,1.992,0,1,0-2.079,1.9,1.992,1.992,0,0,0,2.079-1.9" transform="translate(-58.117 -10.65)"/>
      <path id="Trazado_130" data-name="Trazado 130" d="M59.332,96.947,62.5,26.233l-1.058-.047L58.271,96.947Z" transform="translate(-58.272 -10.481)"/>
    </g>
    <path id="Trazado_129" data-name="Trazado 129" d="M155.7.541c-1.144.606-34.326,20.394-34.326,20.394s-1.75-2.019-2.558-1.615.539,1.144,0,1.682a2.75,2.75,0,0,0-.472,1.75l-.874.606H116.12c-.606,0-.4.876-.4.876a3.761,3.761,0,0,0-1.009,0c-.674.067-.876,1.413-.876,1.413l-4.643,2.624,1.076,1.885,2.961-1.615v1.009s-.134.337-3.7,2.826a16.731,16.731,0,0,0-5.182,5.991l-3.3.631s.423-3.638-.931-6.006-4.568-2.622-5.668-2.453a1.183,1.183,0,0,0-1.014,1.268s-1.607,1.523-2.2,2.2A8.215,8.215,0,0,1,89.4,35.287a.4.4,0,0,0-.016.7l.5.308a11.345,11.345,0,0,0-1.014,2.537c-.339,1.354,1.437,1.777,1.437,1.777l.424,1.523c-8.291,4.314-9.559,9.643-10.575,12.773s-.254,8.205.169,9.644a3.892,3.892,0,0,1-1.1,4.483c-1.692,1.692-4.06,6.513-4.483,8.036s-2.03,9.643-2.37,11.673.508,2.285,1.354,2.539.592,1.268.592,2.03-.592,19.455-.592,19.455l-.038,1.293h4.846a104.02,104.02,0,0,1,2.524-12.015c1.245-3.736.034-6.294.2-6.9s.943-3.129.943-3.129,9.187.033,10.4,0c-.64,1.514,1.177,3.163,1.851,3.567a3.88,3.88,0,0,1,1.884,1.75c.408.872,5.486,12.393,7.51,16.726h3.751c-1.8-4.305-7.606-18.195-7.9-19.352-.336-1.346.2-5.856.2-5.856h2.289c.741,0,.4-.941.135-2.154s-.674-3.365-.4-4.038-.135-2.154-.4-3.7a6.836,6.836,0,0,1,.269-4.241c.606-1.143,0-2.356.067-2.624s.135-2.961.135-3.231a9.919,9.919,0,0,0,.135-2.558,19.152,19.152,0,0,0-2.356-2.826s.067-2.76.269-3.971c2.491-5.048,3.5-10.769,3.231-11.577,1.211-.4,5.99-3.635,6.8-4.039s1.078.067,1.683.674.673-1.213,1.48-1.885,1.818.067,2.558-.135-1.211-1.48.4-1.682a6.077,6.077,0,0,0,3.231-1.75c.673-.539-.606-1.75-.606-1.75a5.324,5.324,0,0,1,1.076-1.144c.741-.606-.067-1.548-.4-1.885s-1.75-1.884-2.221-2.221-.471-1.279-.337-1.817a19.786,19.786,0,0,1,2.626-3.5c.538-.539.808-1.75,1.009-1.952a8.495,8.495,0,0,0,.673-1.009s1.75,1.413,2.154,1.009-.808-2.693-.808-2.693S155.9,2.291,156.774,1.753A2.587,2.587,0,0,0,157.784,0,4.248,4.248,0,0,0,155.7.541" transform="translate(4.778 729.784)"/>
  </g>
</svg>
